<svg width="194" height="56" viewBox="0 0 194 56" fill="none" xmlns="http://www.w3.org/2000/svg">
<g clip-path="url(#clip0_1533_1300)">
<path fill-rule="evenodd" clip-rule="evenodd" d="M11.9738 5.03701C9.97091 6.43752 8.15973 8.09337 6.58745 9.95736C13.0125 9.36086 21.1752 10.3349 30.6521 15.0734C40.7722 20.1332 48.9213 20.3043 54.5927 19.2104C54.0781 17.6523 53.4302 16.1549 52.6628 14.7313C46.1706 15.4161 37.8476 14.5097 28.1478 9.65997C21.9884 6.58025 16.5589 5.31161 11.9738 5.03701ZM48.8704 9.33331C43.7434 3.605 36.2927 0 28 0C25.5647 0 23.2017 0.31095 20.9491 0.895273C24 1.72772 27.241 2.94558 30.6521 4.65117C37.7538 8.20194 43.885 9.34522 48.8704 9.33331ZM55.8053 24.6793C48.9537 26.0323 39.4923 25.7544 28.1478 20.0821C17.542 14.7792 9.10061 14.846 3.40746 16.1112C3.1136 16.1764 2.82666 16.245 2.54664 16.3164C1.80127 17.9375 1.20629 19.6421 0.779384 21.4123C1.23534 21.2905 1.7065 21.1747 2.19263 21.0666C9.09941 19.5318 18.8581 19.5984 30.6521 25.4955C41.2581 30.7984 49.6994 30.7317 55.3927 29.4665C55.5877 29.4232 55.7799 29.3784 55.9689 29.3322C55.9896 28.8908 56 28.4466 56 28C56 26.8765 55.9339 25.7684 55.8053 24.6793ZM55.0547 35.2412C48.2696 36.4274 39.0838 35.9721 28.1478 30.5043C17.542 25.2014 9.10061 25.2682 3.40746 26.5333C2.14375 26.814 1.00694 27.1561 0.00410201 27.5171C0.0013678 27.6777 0 27.8387 0 28C0 43.464 12.536 56 28 56C40.9599 56 51.8634 47.1953 55.0547 35.2412Z" fill="#5690E8"/>
<path d="M83.7182 24.2364C83.6455 23.503 83.3333 22.9333 82.7818 22.5273C82.2303 22.1212 81.4818 21.9182 80.5364 21.9182C79.8939 21.9182 79.3515 22.0091 78.9091 22.1909C78.4667 22.3667 78.1273 22.6121 77.8909 22.9273C77.6606 23.2424 77.5455 23.6 77.5455 24C77.5333 24.3333 77.603 24.6242 77.7545 24.8727C77.9121 25.1212 78.1273 25.3364 78.4 25.5182C78.6727 25.6939 78.9879 25.8485 79.3455 25.9818C79.703 26.1091 80.0848 26.2182 80.4909 26.3091L82.1636 26.7091C82.9758 26.8909 83.7212 27.1333 84.4 27.4364C85.0788 27.7394 85.6667 28.1121 86.1636 28.5545C86.6606 28.997 87.0455 29.5182 87.3182 30.1182C87.597 30.7182 87.7394 31.4061 87.7455 32.1818C87.7394 33.3212 87.4485 34.3091 86.8727 35.1455C86.303 35.9758 85.4788 36.6212 84.4 37.0818C83.3273 37.5364 82.0333 37.7636 80.5182 37.7636C79.0152 37.7636 77.7061 37.5333 76.5909 37.0727C75.4818 36.6121 74.6152 35.9303 73.9909 35.0273C73.3727 34.1182 73.0485 32.9939 73.0182 31.6545H76.8273C76.8697 32.2788 77.0485 32.8 77.3636 33.2182C77.6848 33.6303 78.1121 33.9424 78.6455 34.1545C79.1848 34.3606 79.7939 34.4636 80.4727 34.4636C81.1394 34.4636 81.7182 34.3667 82.2091 34.1727C82.7061 33.9788 83.0909 33.7091 83.3636 33.3636C83.6364 33.0182 83.7727 32.6212 83.7727 32.1727C83.7727 31.7545 83.6485 31.403 83.4 31.1182C83.1576 30.8333 82.8 30.5909 82.3273 30.3909C81.8606 30.1909 81.2879 30.0091 80.6091 29.8455L78.5818 29.3364C77.0121 28.9545 75.7727 28.3576 74.8636 27.5455C73.9545 26.7333 73.503 25.6394 73.5091 24.2636C73.503 23.1364 73.803 22.1515 74.4091 21.3091C75.0212 20.4667 75.8606 19.8091 76.9273 19.3364C77.9939 18.8636 79.2061 18.6273 80.5636 18.6273C81.9455 18.6273 83.1515 18.8636 84.1818 19.3364C85.2182 19.8091 86.0242 20.4667 86.6 21.3091C87.1758 22.1515 87.4727 23.1273 87.4909 24.2364H83.7182ZM90.3932 37.5V18.8818H102.939V22.1273H94.3295V26.5636H102.293V29.8091H94.3295V34.2545H102.975V37.5H90.3932ZM109.277 37.5H105.059L111.486 18.8818H116.559L122.977 37.5H118.759L114.095 23.1364H113.95L109.277 37.5ZM109.014 30.1818H118.977V33.2545H109.014V30.1818ZM125.218 37.5V18.8818H137.764V22.1273H129.155V26.5636H137.118V29.8091H129.155V34.2545H137.8V37.5H125.218ZM156.466 18.8818V37.5H153.066L144.966 25.7818H144.83V37.5H140.893V18.8818H144.348L152.384 30.5909H152.548V18.8818H156.466ZM176.145 25.4H172.164C172.091 24.8848 171.942 24.4273 171.718 24.0273C171.494 23.6212 171.206 23.2758 170.855 22.9909C170.503 22.7061 170.097 22.4879 169.636 22.3364C169.182 22.1848 168.688 22.1091 168.155 22.1091C167.191 22.1091 166.352 22.3485 165.636 22.8273C164.921 23.3 164.367 23.9909 163.973 24.9C163.579 25.803 163.382 26.9 163.382 28.1909C163.382 29.5182 163.579 30.6333 163.973 31.5364C164.373 32.4394 164.93 33.1212 165.645 33.5818C166.361 34.0424 167.188 34.2727 168.127 34.2727C168.655 34.2727 169.142 34.203 169.591 34.0636C170.045 33.9242 170.448 33.7212 170.8 33.4545C171.152 33.1818 171.442 32.8515 171.673 32.4636C171.909 32.0758 172.073 31.6333 172.164 31.1364L176.145 31.1545C176.042 32.0091 175.785 32.8333 175.373 33.6273C174.967 34.4152 174.418 35.1212 173.727 35.7455C173.042 36.3636 172.224 36.8545 171.273 37.2182C170.327 37.5758 169.258 37.7545 168.064 37.7545C166.403 37.7545 164.918 37.3788 163.609 36.6273C162.306 35.8758 161.276 34.7879 160.518 33.3636C159.767 31.9394 159.391 30.2152 159.391 28.1909C159.391 26.1606 159.773 24.4333 160.536 23.0091C161.3 21.5848 162.336 20.5 163.645 19.7545C164.955 19.003 166.427 18.6273 168.064 18.6273C169.142 18.6273 170.142 18.7788 171.064 19.0818C171.991 19.3848 172.812 19.8273 173.527 20.4091C174.242 20.9848 174.824 21.6909 175.273 22.5273C175.727 23.3636 176.018 24.3212 176.145 25.4ZM178.968 37.5V18.8818H191.514V22.1273H182.905V26.5636H190.868V29.8091H182.905V34.2545H191.55V37.5H178.968Z" fill="#5690E8"/>
</g>
<defs>
<clipPath id="clip0_1533_1300">
<rect width="194" height="56" fill="white"/>
</clipPath>
</defs>
</svg>
