<svg width="220" height="56" viewBox="0 0 220 56" fill="none" xmlns="http://www.w3.org/2000/svg">
<g clip-path="url(#clip0_1684_15)">
<g clip-path="url(#clip1_1684_15)">
<circle cx="28" cy="28" r="28" fill="#7DAFF6"/>
<path d="M1.99944 34.9335C6.49752 34.9335 6.49752 31.9648 10.9956 31.9648C15.4937 31.9648 15.4937 34.9335 19.9918 34.9335C24.4898 34.9335 24.4898 31.9648 28.9879 31.9648C33.486 31.9648 33.488 34.9335 37.9841 34.9335C42.4802 34.9335 42.4822 31.9648 46.9803 31.9648C51.2424 31.9648 51.4564 34.6277 55.2707 34.9115C56.9588 27.591 55.6898 19.9001 51.7395 13.5099C47.7892 7.11967 41.4767 2.54652 34.1737 0.784093C30.5636 -0.0228723 26.8293 -0.10616 23.1867 0.539046C19.5442 1.18425 16.0657 2.54515 12.9524 4.54305C9.83906 6.54095 7.15269 9.13621 5.0486 12.1788C2.94451 15.2213 1.46445 18.6508 0.693993 22.2689C-0.223854 26.4034 -0.231358 30.688 0.672002 34.8256C1.11871 34.8933 1.56964 34.9294 2.02143 34.9335H1.99944Z" fill="#2F5ACB"/>
<path d="M25.2415 3.64484H32.5244V10.5219H25.2415V3.64484Z" fill="#FFD54F"/>
<path d="M25.2415 3.64484H27.8124V10.5219H25.2415V3.64484Z" fill="#FFF176"/>
<path d="M27.7484 7.52916C28.6946 7.52916 29.4617 6.55177 29.4617 5.34609C29.4617 4.14042 28.6946 3.16302 27.7484 3.16302C26.8022 3.16302 26.0352 4.14042 26.0352 5.34609C26.0352 6.55177 26.8022 7.52916 27.7484 7.52916Z" fill="#FFF176"/>
<path d="M25.0716 2.85721C25.06 2.3549 25.1489 1.85534 25.3332 1.3879C25.5174 0.920452 25.7932 0.494541 26.1444 0.135194C26.4955 -0.224152 26.915 -0.509687 27.3781 -0.704632C27.8411 -0.899577 28.3385 -1 28.8409 -1C29.3434 -1 29.8408 -0.899577 30.3038 -0.704632C30.7669 -0.509687 31.1864 -0.224152 31.5375 0.135194C31.8887 0.494541 32.1645 0.920452 32.3487 1.3879C32.533 1.85534 32.6219 2.3549 32.6103 2.85721" fill="#F4511E"/>
<path d="M24.8137 2.72729H32.8243C32.9491 2.73847 33.0653 2.79596 33.1498 2.88845C33.2344 2.98095 33.2813 3.10175 33.2813 3.22708C33.2813 3.35242 33.2344 3.47321 33.1498 3.56571C33.0653 3.6582 32.9491 3.71569 32.8243 3.72687H24.8137C24.7481 3.72743 24.6831 3.71476 24.6225 3.68962C24.5619 3.66447 24.507 3.62737 24.4611 3.58053C24.4152 3.53369 24.3792 3.47806 24.3553 3.41699C24.3314 3.35591 24.32 3.29065 24.3219 3.22508C24.3229 3.09441 24.3749 2.96928 24.4667 2.87632C24.5586 2.78336 24.6831 2.72989 24.8137 2.72729Z" fill="#F4511E"/>
<path d="M24.1899 31.7029L25.2395 10.456H32.5224L33.466 30.6474L24.1899 31.7029Z" fill="#C5CAE9"/>
<path d="M24.9637 15.7417L24.6858 21.6372L32.9103 17.7269L32.6324 12.0933L24.9637 15.7417Z" fill="#FF7043"/>
<path d="M24.3899 27.4447L24.09 33.3402L33.472 28.8861L33.1861 23.2525L24.3899 27.4447Z" fill="#FF7043"/>
<path d="M24.128 7.33331H33.524V10.478H24.128V7.33331Z" fill="#E64A19"/>
<path d="M24.128 7.33331H30.2974V10.478H24.128V7.33331Z" fill="#F4511E"/>
<path d="M40.6869 6.46165C40.9298 6.46545 41.1696 6.51707 41.3926 6.61359C41.4469 5.93962 41.7298 5.30443 42.1945 4.81322C42.6591 4.32201 43.2776 4.00426 43.9475 3.91259C44.6174 3.82092 45.2985 3.96084 45.8781 4.30916C46.4576 4.65749 46.9008 5.19333 47.1341 5.82792C47.6615 5.84447 48.1618 6.06562 48.529 6.44453C48.8962 6.82345 49.1016 7.3304 49.1016 7.85806C49.1016 8.38571 48.8962 8.89266 48.529 9.27158C48.1618 9.6505 47.6615 9.87164 47.1341 9.88819H40.6869C40.462 9.88742 40.2396 9.84204 40.0324 9.75467C39.8252 9.6673 39.6374 9.53968 39.4799 9.3792C39.3224 9.21873 39.1983 9.02859 39.1149 8.81981C39.0314 8.61103 38.9902 8.38775 38.9936 8.16293C38.9907 7.93937 39.0324 7.71748 39.1164 7.51027C39.2003 7.30306 39.3248 7.11471 39.4825 6.95624C39.6402 6.79778 39.828 6.67241 40.0348 6.58748C40.2416 6.50255 40.4633 6.45977 40.6869 6.46165Z" fill="#E2E2FA"/>
<path d="M21.5151 22.8807C21.7223 22.8801 21.927 22.9251 22.1148 23.0126C22.151 22.4362 22.3851 21.8901 22.7777 21.4665C23.1702 21.0429 23.6971 20.768 24.269 20.6883C24.841 20.6086 25.423 20.7289 25.9164 21.029C26.4098 21.329 26.7844 21.7904 26.9768 22.3349C27.4343 22.3121 27.8822 22.472 28.2219 22.7794C28.5616 23.0869 28.7652 23.5166 28.788 23.9742C28.8108 24.4318 28.6509 24.8797 28.3435 25.2193C28.036 25.559 27.6063 25.7626 27.1487 25.7854H21.5371C21.3477 25.7775 21.1618 25.7321 20.9901 25.6518C20.8185 25.5716 20.6644 25.4581 20.5368 25.3179C20.4093 25.1777 20.3108 25.0137 20.2471 24.8352C20.1834 24.6567 20.1557 24.4673 20.1657 24.2781C20.1654 23.9154 20.306 23.5669 20.5577 23.3058C20.8094 23.0448 21.1527 22.8936 21.5151 22.8807Z" fill="#E2E2FA"/>
<path d="M35.5231 3.39692C35.6888 3.39692 35.823 3.26267 35.823 3.09705C35.823 2.93144 35.6888 2.79718 35.5231 2.79718C35.3575 2.79718 35.2233 2.93144 35.2233 3.09705C35.2233 3.26267 35.3575 3.39692 35.5231 3.39692Z" fill="#FDD835"/>
<path d="M5.15009 28.0285C5.31571 28.0285 5.44996 27.8942 5.44996 27.7286C5.44996 27.563 5.31571 27.4287 5.15009 27.4287C4.98448 27.4287 4.85022 27.563 4.85022 27.7286C4.85022 27.8942 4.98448 28.0285 5.15009 28.0285Z" fill="#FDD835"/>
<path d="M7.9549 21.7832C8.12052 21.7832 8.25477 21.6489 8.25477 21.4833C8.25477 21.3177 8.12052 21.1834 7.9549 21.1834C7.78929 21.1834 7.65503 21.3177 7.65503 21.4833C7.65503 21.6489 7.78929 21.7832 7.9549 21.7832Z" fill="#FDD835"/>
<path d="M9.84009 20.1679C10.0057 20.1679 10.14 20.0336 10.14 19.868C10.14 19.7024 10.0057 19.5681 9.84009 19.5681C9.67448 19.5681 9.54022 19.7024 9.54022 19.868C9.54022 20.0336 9.67448 20.1679 9.84009 20.1679Z" fill="#FDD835"/>
<path d="M17.7867 12.9409C17.9523 12.9409 18.0866 12.8066 18.0866 12.641C18.0866 12.4754 17.9523 12.3411 17.7867 12.3411C17.6211 12.3411 17.4868 12.4754 17.4868 12.641C17.4868 12.8066 17.6211 12.9409 17.7867 12.9409Z" fill="#FDD835"/>
<path d="M42.9139 13.8126C43.0796 13.8126 43.2138 13.6783 43.2138 13.5127C43.2138 13.3471 43.0796 13.2128 42.9139 13.2128C42.7483 13.2128 42.6141 13.3471 42.6141 13.5127C42.6141 13.6783 42.7483 13.8126 42.9139 13.8126Z" fill="#FDD835"/>
<path d="M54.8449 26.7391C55.0105 26.7391 55.1448 26.6048 55.1448 26.4392C55.1448 26.2736 55.0105 26.1393 54.8449 26.1393C54.6793 26.1393 54.545 26.2736 54.545 26.4392C54.545 26.6048 54.6793 26.7391 54.8449 26.7391Z" fill="#FDD835"/>
<path d="M12.7529 12.0012C12.9185 12.0012 13.0527 11.867 13.0527 11.7014C13.0527 11.5357 12.9185 11.4015 12.7529 11.4015C12.5873 11.4015 12.453 11.5357 12.453 11.7014C12.453 11.867 12.5873 12.0012 12.7529 12.0012Z" fill="#FDD835"/>
<path d="M39.5734 26.871C39.739 26.871 39.8733 26.7367 39.8733 26.5711C39.8733 26.4055 39.739 26.2712 39.5734 26.2712C39.4078 26.2712 39.2736 26.4055 39.2736 26.5711C39.2736 26.7367 39.4078 26.871 39.5734 26.871Z" fill="#FDD835"/>
<path d="M48.7615 19.1203C48.9271 19.1203 49.0614 18.986 49.0614 18.8204C49.0614 18.6548 48.9271 18.5205 48.7615 18.5205C48.5959 18.5205 48.4616 18.6548 48.4616 18.8204C48.4616 18.986 48.5959 19.1203 48.7615 19.1203Z" fill="#FDD835"/>
<path opacity="0.5" d="M25.3715 3.53498C25.3715 3.53498 11.1256 1.50385 11.0836 1.50385C7.28519 3.9889 4.06959 7.26655 1.65759 11.1117L25.3495 7.57526L25.3715 3.53498Z" fill="#FFE082"/>
<path d="M20.0577 34.9995C24.5558 34.9995 24.5558 32.0308 29.0539 32.0308C33.552 32.0308 33.554 34.9995 38.0521 34.9995C41.8644 34.9995 42.4502 32.8604 45.291 32.2007C40.2829 29.7259 34.746 28.5119 29.1619 28.6642C23.5455 28.5151 17.9781 29.7444 12.9468 32.2447C15.6876 32.9244 16.2874 34.9995 20.0577 34.9995Z" fill="#00C853"/>
<path d="M20.0797 34.9555C24.5778 34.9555 24.5778 31.9868 29.0759 31.9868H29.1619L29.1199 28.7102C23.5607 28.5573 18.0474 29.755 13.0527 32.2007C15.7316 32.9024 16.3533 34.9555 20.0797 34.9555Z" fill="#64DD17"/>
</g>
<path d="M73.6182 37.5V18.8818H77.5545V34.2545H85.5364V37.5H73.6182ZM92.0795 18.8818V37.5H88.1432V18.8818H92.0795ZM107.664 24.9C107.536 24.4576 107.358 24.0667 107.127 23.7273C106.897 23.3818 106.615 23.0909 106.282 22.8545C105.955 22.6121 105.579 22.4273 105.155 22.3C104.736 22.1727 104.273 22.1091 103.764 22.1091C102.812 22.1091 101.976 22.3455 101.255 22.8182C100.539 23.2909 99.9818 23.9788 99.5818 24.8818C99.1818 25.7788 98.9818 26.8758 98.9818 28.1727C98.9818 29.4697 99.1788 30.5727 99.5727 31.4818C99.9667 32.3909 100.524 33.0848 101.245 33.5636C101.967 34.0364 102.818 34.2727 103.8 34.2727C104.691 34.2727 105.452 34.1152 106.082 33.8C106.718 33.4788 107.203 33.0273 107.536 32.4455C107.876 31.8636 108.045 31.1758 108.045 30.3818L108.845 30.5H104.045V27.5364H111.836V29.8818C111.836 31.5182 111.491 32.9242 110.8 34.1C110.109 35.2697 109.158 36.1727 107.945 36.8091C106.733 37.4394 105.345 37.7545 103.782 37.7545C102.036 37.7545 100.503 37.3697 99.1818 36.6C97.8606 35.8242 96.8303 34.7242 96.0909 33.3C95.3576 31.8697 94.9909 30.1727 94.9909 28.2091C94.9909 26.7 95.2091 25.3545 95.6455 24.1727C96.0879 22.9848 96.7061 21.9788 97.5 21.1545C98.2939 20.3303 99.2182 19.703 100.273 19.2727C101.327 18.8424 102.47 18.6273 103.7 18.6273C104.755 18.6273 105.736 18.7818 106.645 19.0909C107.555 19.3939 108.361 19.8242 109.064 20.3818C109.773 20.9394 110.352 21.603 110.8 22.3727C111.248 23.1364 111.536 23.9788 111.664 24.9H107.664ZM114.793 37.5V18.8818H118.73V26.5636H126.72V18.8818H130.648V37.5H126.72V29.8091H118.73V37.5H114.793ZM133.184 22.1273V18.8818H148.475V22.1273H142.775V37.5H138.884V22.1273H133.184ZM167.252 28.1909C167.252 30.2212 166.867 31.9485 166.098 33.3727C165.334 34.797 164.292 35.8848 162.97 36.6364C161.655 37.3818 160.177 37.7545 158.534 37.7545C156.88 37.7545 155.395 37.3788 154.08 36.6273C152.764 35.8758 151.725 34.7879 150.961 33.3636C150.198 31.9394 149.816 30.2152 149.816 28.1909C149.816 26.1606 150.198 24.4333 150.961 23.0091C151.725 21.5848 152.764 20.5 154.08 19.7545C155.395 19.003 156.88 18.6273 158.534 18.6273C160.177 18.6273 161.655 19.003 162.97 19.7545C164.292 20.5 165.334 21.5848 166.098 23.0091C166.867 24.4333 167.252 26.1606 167.252 28.1909ZM163.261 28.1909C163.261 26.8758 163.064 25.7667 162.67 24.8636C162.283 23.9606 161.734 23.2758 161.025 22.8091C160.316 22.3424 159.486 22.1091 158.534 22.1091C157.583 22.1091 156.752 22.3424 156.043 22.8091C155.334 23.2758 154.783 23.9606 154.389 24.8636C154.001 25.7667 153.807 26.8758 153.807 28.1909C153.807 29.5061 154.001 30.6152 154.389 31.5182C154.783 32.4212 155.334 33.1061 156.043 33.5727C156.752 34.0394 157.583 34.2727 158.534 34.2727C159.486 34.2727 160.316 34.0394 161.025 33.5727C161.734 33.1061 162.283 32.4212 162.67 31.5182C163.064 30.6152 163.261 29.5061 163.261 28.1909ZM181.668 18.8818H185.605V30.9727C185.605 32.3303 185.28 33.5182 184.632 34.5364C183.989 35.5545 183.089 36.3485 181.932 36.9182C180.774 37.4818 179.426 37.7636 177.886 37.7636C176.341 37.7636 174.989 37.4818 173.832 36.9182C172.674 36.3485 171.774 35.5545 171.132 34.5364C170.489 33.5182 170.168 32.3303 170.168 30.9727V18.8818H174.105V30.6364C174.105 31.3455 174.259 31.9758 174.568 32.5273C174.883 33.0788 175.326 33.5121 175.895 33.8273C176.465 34.1424 177.129 34.3 177.886 34.3C178.65 34.3 179.314 34.1424 179.877 33.8273C180.447 33.5121 180.886 33.0788 181.195 32.5273C181.511 31.9758 181.668 31.3455 181.668 30.6364V18.8818ZM198.943 24.2364C198.87 23.503 198.558 22.9333 198.007 22.5273C197.455 22.1212 196.707 21.9182 195.761 21.9182C195.119 21.9182 194.577 22.0091 194.134 22.1909C193.692 22.3667 193.352 22.6121 193.116 22.9273C192.886 23.2424 192.77 23.6 192.77 24C192.758 24.3333 192.828 24.6242 192.98 24.8727C193.137 25.1212 193.352 25.3364 193.625 25.5182C193.898 25.6939 194.213 25.8485 194.57 25.9818C194.928 26.1091 195.31 26.2182 195.716 26.3091L197.389 26.7091C198.201 26.8909 198.946 27.1333 199.625 27.4364C200.304 27.7394 200.892 28.1121 201.389 28.5545C201.886 28.997 202.27 29.5182 202.543 30.1182C202.822 30.7182 202.964 31.4061 202.97 32.1818C202.964 33.3212 202.673 34.3091 202.098 35.1455C201.528 35.9758 200.704 36.6212 199.625 37.0818C198.552 37.5364 197.258 37.7636 195.743 37.7636C194.24 37.7636 192.931 37.5333 191.816 37.0727C190.707 36.6121 189.84 35.9303 189.216 35.0273C188.598 34.1182 188.273 32.9939 188.243 31.6545H192.052C192.095 32.2788 192.273 32.8 192.589 33.2182C192.91 33.6303 193.337 33.9424 193.87 34.1545C194.41 34.3606 195.019 34.4636 195.698 34.4636C196.364 34.4636 196.943 34.3667 197.434 34.1727C197.931 33.9788 198.316 33.7091 198.589 33.3636C198.861 33.0182 198.998 32.6212 198.998 32.1727C198.998 31.7545 198.873 31.403 198.625 31.1182C198.383 30.8333 198.025 30.5909 197.552 30.3909C197.086 30.1909 196.513 30.0091 195.834 29.8455L193.807 29.3364C192.237 28.9545 190.998 28.3576 190.089 27.5455C189.18 26.7333 188.728 25.6394 188.734 24.2636C188.728 23.1364 189.028 22.1515 189.634 21.3091C190.246 20.4667 191.086 19.8091 192.152 19.3364C193.219 18.8636 194.431 18.6273 195.789 18.6273C197.17 18.6273 198.377 18.8636 199.407 19.3364C200.443 19.8091 201.249 20.4667 201.825 21.3091C202.401 22.1515 202.698 23.1273 202.716 24.2364H198.943ZM205.618 37.5V18.8818H218.164V22.1273H209.555V26.5636H217.518V29.8091H209.555V34.2545H218.2V37.5H205.618Z" fill="#5690E8"/>
</g>
<defs>
<clipPath id="clip0_1684_15">
<rect width="220" height="56" fill="white"/>
</clipPath>
<clipPath id="clip1_1684_15">
<rect width="56" height="56" fill="white"/>
</clipPath>
</defs>
</svg>
